%TF.GenerationSoftware,KiCad,Pcbnew,9.0.0*%
%TF.CreationDate,2025-03-12T20:24:09+03:00*%
%TF.ProjectId,getting-started,67657474-696e-4672-9d73-746172746564,0*%
%TF.SameCoordinates,Original*%
%TF.FileFunction,Legend,Top*%
%TF.FilePolarity,Positive*%
%FSLAX46Y46*%
G04 Gerber Fmt 4.6, Leading zero omitted, Abs format (unit mm)*
G04 Created by KiCad (PCBNEW 9.0.0) date 2025-03-12 20:24:09*
%MOMM*%
%LPD*%
G01*
G04 APERTURE LIST*
%ADD10C,0.150000*%
%ADD11C,0.120000*%
G04 APERTURE END LIST*
D10*
X154833333Y-115174819D02*
X154500000Y-114698628D01*
X154261905Y-115174819D02*
X154261905Y-114174819D01*
X154261905Y-114174819D02*
X154642857Y-114174819D01*
X154642857Y-114174819D02*
X154738095Y-114222438D01*
X154738095Y-114222438D02*
X154785714Y-114270057D01*
X154785714Y-114270057D02*
X154833333Y-114365295D01*
X154833333Y-114365295D02*
X154833333Y-114508152D01*
X154833333Y-114508152D02*
X154785714Y-114603390D01*
X154785714Y-114603390D02*
X154738095Y-114651009D01*
X154738095Y-114651009D02*
X154642857Y-114698628D01*
X154642857Y-114698628D02*
X154261905Y-114698628D01*
X155785714Y-115174819D02*
X155214286Y-115174819D01*
X155500000Y-115174819D02*
X155500000Y-114174819D01*
X155500000Y-114174819D02*
X155404762Y-114317676D01*
X155404762Y-114317676D02*
X155309524Y-114412914D01*
X155309524Y-114412914D02*
X155214286Y-114460533D01*
X136414819Y-111468094D02*
X135414819Y-111468094D01*
X135414819Y-111468094D02*
X135414819Y-111229999D01*
X135414819Y-111229999D02*
X135462438Y-111087142D01*
X135462438Y-111087142D02*
X135557676Y-110991904D01*
X135557676Y-110991904D02*
X135652914Y-110944285D01*
X135652914Y-110944285D02*
X135843390Y-110896666D01*
X135843390Y-110896666D02*
X135986247Y-110896666D01*
X135986247Y-110896666D02*
X136176723Y-110944285D01*
X136176723Y-110944285D02*
X136271961Y-110991904D01*
X136271961Y-110991904D02*
X136367200Y-111087142D01*
X136367200Y-111087142D02*
X136414819Y-111229999D01*
X136414819Y-111229999D02*
X136414819Y-111468094D01*
X136414819Y-109944285D02*
X136414819Y-110515713D01*
X136414819Y-110229999D02*
X135414819Y-110229999D01*
X135414819Y-110229999D02*
X135557676Y-110325237D01*
X135557676Y-110325237D02*
X135652914Y-110420475D01*
X135652914Y-110420475D02*
X135700533Y-110515713D01*
D11*
%TO.C,R1*%
X160310000Y-112000000D02*
X159620000Y-112000000D01*
X159620000Y-113720000D02*
X159620000Y-110280000D01*
X159620000Y-110280000D02*
X150380000Y-110280000D01*
X150380000Y-113720000D02*
X159620000Y-113720000D01*
X150380000Y-110280000D02*
X150380000Y-113720000D01*
X149690000Y-112000000D02*
X150380000Y-112000000D01*
%TO.C,D1*%
X133545000Y-108170000D02*
X130455000Y-108170000D01*
X133544830Y-108170000D02*
G75*
G02*
X132000048Y-113720000I-1544830J-2560000D01*
G01*
X131999952Y-113720000D02*
G75*
G02*
X130455170Y-108170000I48J2990000D01*
G01*
X134500000Y-110730000D02*
G75*
G02*
X129500000Y-110730000I-2500000J0D01*
G01*
X129500000Y-110730000D02*
G75*
G02*
X134500000Y-110730000I2500000J0D01*
G01*
%TD*%
M02*
