%TF.GenerationSoftware,KiCad,Pcbnew,9.0.0*%
%TF.CreationDate,2025-03-12T20:24:48+03:00*%
%TF.ProjectId,getting-started,67657474-696e-4672-9d73-746172746564,0*%
%TF.SameCoordinates,Original*%
%TF.FileFunction,Copper,L2,Bot*%
%TF.FilePolarity,Positive*%
%FSLAX46Y46*%
G04 Gerber Fmt 4.6, Leading zero omitted, Abs format (unit mm)*
G04 Created by KiCad (PCBNEW 9.0.0) date 2025-03-12 20:24:48*
%MOMM*%
%LPD*%
G01*
G04 APERTURE LIST*
%TA.AperFunction,ComponentPad*%
%ADD10C,1.600000*%
%TD*%
%TA.AperFunction,ComponentPad*%
%ADD11O,1.600000X1.600000*%
%TD*%
%TA.AperFunction,ComponentPad*%
%ADD12R,1.800000X1.800000*%
%TD*%
%TA.AperFunction,ComponentPad*%
%ADD13C,1.800000*%
%TD*%
%TA.AperFunction,SMDPad,CuDef*%
%ADD14R,2.540000X3.510000*%
%TD*%
%TA.AperFunction,ViaPad*%
%ADD15C,0.600000*%
%TD*%
%TA.AperFunction,Conductor*%
%ADD16C,0.200000*%
%TD*%
G04 APERTURE END LIST*
D10*
%TO.P,R1,1*%
%TO.N,VCC*%
X161350000Y-112000000D03*
D11*
%TO.P,R1,2*%
%TO.N,/led*%
X148650000Y-112000000D03*
%TD*%
D12*
%TO.P,D1,1,K*%
%TO.N,GND*%
X132000000Y-109460000D03*
D13*
%TO.P,D1,2,A*%
%TO.N,/led*%
X132000000Y-112000000D03*
%TD*%
D14*
%TO.P,BT1,1,+*%
%TO.N,VCC*%
X161360000Y-95000000D03*
%TO.P,BT1,2,-*%
%TO.N,GND*%
X132000000Y-95000000D03*
%TD*%
D15*
%TO.N,VCC*%
X163000000Y-105000000D03*
%TD*%
D16*
%TO.N,GND*%
X132000000Y-95000000D02*
X132000000Y-109460000D01*
%TO.N,VCC*%
X161360000Y-95000000D02*
X161360000Y-103360000D01*
X161360000Y-103360000D02*
X163000000Y-105000000D01*
%TD*%
%TA.AperFunction,Conductor*%
%TO.N,GND*%
G36*
X169442539Y-80520185D02*
G01*
X169488294Y-80572989D01*
X169499500Y-80624500D01*
X169499500Y-119375500D01*
X169479815Y-119442539D01*
X169427011Y-119488294D01*
X169375500Y-119499500D01*
X120624500Y-119499500D01*
X120557461Y-119479815D01*
X120511706Y-119427011D01*
X120500500Y-119375500D01*
X120500500Y-111889778D01*
X130599500Y-111889778D01*
X130599500Y-112110221D01*
X130633985Y-112327952D01*
X130702103Y-112537603D01*
X130702104Y-112537606D01*
X130770122Y-112671096D01*
X130775479Y-112681610D01*
X130802187Y-112734025D01*
X130931752Y-112912358D01*
X130931756Y-112912363D01*
X131087636Y-113068243D01*
X131087641Y-113068247D01*
X131148258Y-113112287D01*
X131265978Y-113197815D01*
X131394375Y-113263237D01*
X131462393Y-113297895D01*
X131462396Y-113297896D01*
X131567221Y-113331955D01*
X131672049Y-113366015D01*
X131889778Y-113400500D01*
X131889779Y-113400500D01*
X132110221Y-113400500D01*
X132110222Y-113400500D01*
X132327951Y-113366015D01*
X132537606Y-113297895D01*
X132734022Y-113197815D01*
X132912365Y-113068242D01*
X133068242Y-112912365D01*
X133197815Y-112734022D01*
X133297895Y-112537606D01*
X133366015Y-112327951D01*
X133400500Y-112110222D01*
X133400500Y-111897648D01*
X147349500Y-111897648D01*
X147349500Y-112102351D01*
X147381522Y-112304534D01*
X147444781Y-112499223D01*
X147537715Y-112681613D01*
X147658028Y-112847213D01*
X147802786Y-112991971D01*
X147957749Y-113104556D01*
X147968390Y-113112287D01*
X148084607Y-113171503D01*
X148150776Y-113205218D01*
X148150778Y-113205218D01*
X148150781Y-113205220D01*
X148255137Y-113239127D01*
X148345465Y-113268477D01*
X148446557Y-113284488D01*
X148547648Y-113300500D01*
X148547649Y-113300500D01*
X148752351Y-113300500D01*
X148752352Y-113300500D01*
X148954534Y-113268477D01*
X149149219Y-113205220D01*
X149331610Y-113112287D01*
X149424590Y-113044732D01*
X149497213Y-112991971D01*
X149497215Y-112991968D01*
X149497219Y-112991966D01*
X149641966Y-112847219D01*
X149641968Y-112847215D01*
X149641971Y-112847213D01*
X149694732Y-112774590D01*
X149762287Y-112681610D01*
X149855220Y-112499219D01*
X149918477Y-112304534D01*
X149950500Y-112102352D01*
X149950500Y-111897648D01*
X160049500Y-111897648D01*
X160049500Y-112102351D01*
X160081522Y-112304534D01*
X160144781Y-112499223D01*
X160237715Y-112681613D01*
X160358028Y-112847213D01*
X160502786Y-112991971D01*
X160657749Y-113104556D01*
X160668390Y-113112287D01*
X160784607Y-113171503D01*
X160850776Y-113205218D01*
X160850778Y-113205218D01*
X160850781Y-113205220D01*
X160955137Y-113239127D01*
X161045465Y-113268477D01*
X161146557Y-113284488D01*
X161247648Y-113300500D01*
X161247649Y-113300500D01*
X161452351Y-113300500D01*
X161452352Y-113300500D01*
X161654534Y-113268477D01*
X161849219Y-113205220D01*
X162031610Y-113112287D01*
X162124590Y-113044732D01*
X162197213Y-112991971D01*
X162197215Y-112991968D01*
X162197219Y-112991966D01*
X162341966Y-112847219D01*
X162341968Y-112847215D01*
X162341971Y-112847213D01*
X162394732Y-112774590D01*
X162462287Y-112681610D01*
X162555220Y-112499219D01*
X162618477Y-112304534D01*
X162650500Y-112102352D01*
X162650500Y-111897648D01*
X162618477Y-111695465D01*
X162555218Y-111500776D01*
X162521503Y-111434607D01*
X162462287Y-111318390D01*
X162424205Y-111265974D01*
X162341971Y-111152786D01*
X162197213Y-111008028D01*
X162031613Y-110887715D01*
X162031612Y-110887714D01*
X162031610Y-110887713D01*
X161974653Y-110858691D01*
X161849223Y-110794781D01*
X161654534Y-110731522D01*
X161468799Y-110702105D01*
X161452352Y-110699500D01*
X161247648Y-110699500D01*
X161231201Y-110702105D01*
X161045465Y-110731522D01*
X160850776Y-110794781D01*
X160668386Y-110887715D01*
X160502786Y-111008028D01*
X160358028Y-111152786D01*
X160237715Y-111318386D01*
X160144781Y-111500776D01*
X160081522Y-111695465D01*
X160049500Y-111897648D01*
X149950500Y-111897648D01*
X149918477Y-111695465D01*
X149855218Y-111500776D01*
X149821503Y-111434607D01*
X149762287Y-111318390D01*
X149724205Y-111265974D01*
X149641971Y-111152786D01*
X149497213Y-111008028D01*
X149331613Y-110887715D01*
X149331612Y-110887714D01*
X149331610Y-110887713D01*
X149274653Y-110858691D01*
X149149223Y-110794781D01*
X148954534Y-110731522D01*
X148768799Y-110702105D01*
X148752352Y-110699500D01*
X148547648Y-110699500D01*
X148531201Y-110702105D01*
X148345465Y-110731522D01*
X148150776Y-110794781D01*
X147968386Y-110887715D01*
X147802786Y-111008028D01*
X147658028Y-111152786D01*
X147537715Y-111318386D01*
X147444781Y-111500776D01*
X147381522Y-111695465D01*
X147349500Y-111897648D01*
X133400500Y-111897648D01*
X133400500Y-111889778D01*
X133366015Y-111672049D01*
X133297895Y-111462394D01*
X133297895Y-111462393D01*
X133263237Y-111394375D01*
X133197815Y-111265978D01*
X133115573Y-111152781D01*
X133068247Y-111087641D01*
X133068243Y-111087636D01*
X133017683Y-111037076D01*
X132984198Y-110975753D01*
X132989182Y-110906061D01*
X133031054Y-110850128D01*
X133062031Y-110833213D01*
X133142086Y-110803354D01*
X133142093Y-110803350D01*
X133257187Y-110717190D01*
X133257190Y-110717187D01*
X133343350Y-110602093D01*
X133343354Y-110602086D01*
X133393596Y-110467379D01*
X133393598Y-110467372D01*
X133399999Y-110407844D01*
X133400000Y-110407827D01*
X133400000Y-109710000D01*
X132375278Y-109710000D01*
X132419333Y-109633694D01*
X132450000Y-109519244D01*
X132450000Y-109400756D01*
X132419333Y-109286306D01*
X132375278Y-109210000D01*
X133400000Y-109210000D01*
X133400000Y-108512172D01*
X133399999Y-108512155D01*
X133393598Y-108452627D01*
X133393596Y-108452620D01*
X133343354Y-108317913D01*
X133343350Y-108317906D01*
X133257190Y-108202812D01*
X133257187Y-108202809D01*
X133142093Y-108116649D01*
X133142086Y-108116645D01*
X133007379Y-108066403D01*
X133007372Y-108066401D01*
X132947844Y-108060000D01*
X132250000Y-108060000D01*
X132250000Y-109084722D01*
X132173694Y-109040667D01*
X132059244Y-109010000D01*
X131940756Y-109010000D01*
X131826306Y-109040667D01*
X131750000Y-109084722D01*
X131750000Y-108060000D01*
X131052155Y-108060000D01*
X130992627Y-108066401D01*
X130992620Y-108066403D01*
X130857913Y-108116645D01*
X130857906Y-108116649D01*
X130742812Y-108202809D01*
X130742809Y-108202812D01*
X130656649Y-108317906D01*
X130656645Y-108317913D01*
X130606403Y-108452620D01*
X130606401Y-108452627D01*
X130600000Y-108512155D01*
X130600000Y-109210000D01*
X131624722Y-109210000D01*
X131580667Y-109286306D01*
X131550000Y-109400756D01*
X131550000Y-109519244D01*
X131580667Y-109633694D01*
X131624722Y-109710000D01*
X130600000Y-109710000D01*
X130600000Y-110407844D01*
X130606401Y-110467372D01*
X130606403Y-110467379D01*
X130656645Y-110602086D01*
X130656649Y-110602093D01*
X130742809Y-110717187D01*
X130742812Y-110717190D01*
X130857906Y-110803350D01*
X130857913Y-110803354D01*
X130937968Y-110833213D01*
X130993902Y-110875084D01*
X131018319Y-110940549D01*
X131003467Y-111008822D01*
X130982317Y-111037075D01*
X130931756Y-111087636D01*
X130931752Y-111087641D01*
X130802187Y-111265974D01*
X130702104Y-111462393D01*
X130702103Y-111462396D01*
X130633985Y-111672047D01*
X130599500Y-111889778D01*
X120500500Y-111889778D01*
X120500500Y-96802844D01*
X130230000Y-96802844D01*
X130236401Y-96862372D01*
X130236403Y-96862379D01*
X130286645Y-96997086D01*
X130286649Y-96997093D01*
X130372809Y-97112187D01*
X130372812Y-97112190D01*
X130487906Y-97198350D01*
X130487913Y-97198354D01*
X130622620Y-97248596D01*
X130622627Y-97248598D01*
X130682155Y-97254999D01*
X130682172Y-97255000D01*
X131750000Y-97255000D01*
X132250000Y-97255000D01*
X133317828Y-97255000D01*
X133317844Y-97254999D01*
X133377372Y-97248598D01*
X133377379Y-97248596D01*
X133512086Y-97198354D01*
X133512093Y-97198350D01*
X133627187Y-97112190D01*
X133627190Y-97112187D01*
X133713350Y-96997093D01*
X133713354Y-96997086D01*
X133763596Y-96862379D01*
X133763598Y-96862372D01*
X133769999Y-96802844D01*
X133770000Y-96802827D01*
X133770000Y-95250000D01*
X132250000Y-95250000D01*
X132250000Y-97255000D01*
X131750000Y-97255000D01*
X131750000Y-95250000D01*
X130230000Y-95250000D01*
X130230000Y-96802844D01*
X120500500Y-96802844D01*
X120500500Y-93197155D01*
X130230000Y-93197155D01*
X130230000Y-94750000D01*
X131750000Y-94750000D01*
X132250000Y-94750000D01*
X133770000Y-94750000D01*
X133770000Y-93197164D01*
X133769997Y-93197135D01*
X159589500Y-93197135D01*
X159589500Y-96802870D01*
X159589501Y-96802876D01*
X159595908Y-96862483D01*
X159646202Y-96997328D01*
X159646206Y-96997335D01*
X159732452Y-97112544D01*
X159732455Y-97112547D01*
X159847664Y-97198793D01*
X159847671Y-97198797D01*
X159892618Y-97215561D01*
X159982517Y-97249091D01*
X160042127Y-97255500D01*
X160635500Y-97255499D01*
X160702539Y-97275183D01*
X160748294Y-97327987D01*
X160759500Y-97379499D01*
X160759500Y-103273330D01*
X160759499Y-103273348D01*
X160759499Y-103439054D01*
X160759498Y-103439054D01*
X160800423Y-103591785D01*
X160829358Y-103641900D01*
X160829359Y-103641904D01*
X160829360Y-103641904D01*
X160879479Y-103728714D01*
X160879481Y-103728717D01*
X160998349Y-103847585D01*
X160998355Y-103847590D01*
X162165425Y-105014660D01*
X162198910Y-105075983D01*
X162199361Y-105078149D01*
X162230261Y-105233491D01*
X162230264Y-105233501D01*
X162290602Y-105379172D01*
X162290609Y-105379185D01*
X162378210Y-105510288D01*
X162378213Y-105510292D01*
X162489707Y-105621786D01*
X162489711Y-105621789D01*
X162620814Y-105709390D01*
X162620827Y-105709397D01*
X162766498Y-105769735D01*
X162766503Y-105769737D01*
X162921153Y-105800499D01*
X162921156Y-105800500D01*
X162921158Y-105800500D01*
X163078844Y-105800500D01*
X163078845Y-105800499D01*
X163233497Y-105769737D01*
X163379179Y-105709394D01*
X163510289Y-105621789D01*
X163621789Y-105510289D01*
X163709394Y-105379179D01*
X163769737Y-105233497D01*
X163800500Y-105078842D01*
X163800500Y-104921158D01*
X163800500Y-104921155D01*
X163800499Y-104921153D01*
X163769738Y-104766510D01*
X163769737Y-104766503D01*
X163769735Y-104766498D01*
X163709397Y-104620827D01*
X163709390Y-104620814D01*
X163621789Y-104489711D01*
X163621786Y-104489707D01*
X163510292Y-104378213D01*
X163510288Y-104378210D01*
X163379185Y-104290609D01*
X163379172Y-104290602D01*
X163233501Y-104230264D01*
X163233491Y-104230261D01*
X163078149Y-104199361D01*
X163016238Y-104166976D01*
X163014660Y-104165425D01*
X161996819Y-103147584D01*
X161963334Y-103086261D01*
X161960500Y-103059903D01*
X161960500Y-97379499D01*
X161980185Y-97312460D01*
X162032989Y-97266705D01*
X162084500Y-97255499D01*
X162677871Y-97255499D01*
X162677872Y-97255499D01*
X162737483Y-97249091D01*
X162872331Y-97198796D01*
X162987546Y-97112546D01*
X163073796Y-96997331D01*
X163124091Y-96862483D01*
X163130500Y-96802873D01*
X163130499Y-93197128D01*
X163124091Y-93137517D01*
X163073884Y-93002906D01*
X163073797Y-93002671D01*
X163073793Y-93002664D01*
X162987547Y-92887455D01*
X162987544Y-92887452D01*
X162872335Y-92801206D01*
X162872328Y-92801202D01*
X162737482Y-92750908D01*
X162737483Y-92750908D01*
X162677883Y-92744501D01*
X162677881Y-92744500D01*
X162677873Y-92744500D01*
X162677864Y-92744500D01*
X160042129Y-92744500D01*
X160042123Y-92744501D01*
X159982516Y-92750908D01*
X159847671Y-92801202D01*
X159847664Y-92801206D01*
X159732455Y-92887452D01*
X159732452Y-92887455D01*
X159646206Y-93002664D01*
X159646202Y-93002671D01*
X159595908Y-93137517D01*
X159589501Y-93197116D01*
X159589501Y-93197123D01*
X159589500Y-93197135D01*
X133769997Y-93197135D01*
X133763598Y-93137627D01*
X133763596Y-93137620D01*
X133713354Y-93002913D01*
X133713350Y-93002906D01*
X133627190Y-92887812D01*
X133627187Y-92887809D01*
X133512093Y-92801649D01*
X133512086Y-92801645D01*
X133377379Y-92751403D01*
X133377372Y-92751401D01*
X133317844Y-92745000D01*
X132250000Y-92745000D01*
X132250000Y-94750000D01*
X131750000Y-94750000D01*
X131750000Y-92745000D01*
X130682155Y-92745000D01*
X130622627Y-92751401D01*
X130622620Y-92751403D01*
X130487913Y-92801645D01*
X130487906Y-92801649D01*
X130372812Y-92887809D01*
X130372809Y-92887812D01*
X130286649Y-93002906D01*
X130286645Y-93002913D01*
X130236403Y-93137620D01*
X130236401Y-93137627D01*
X130230000Y-93197155D01*
X120500500Y-93197155D01*
X120500500Y-80624500D01*
X120520185Y-80557461D01*
X120572989Y-80511706D01*
X120624500Y-80500500D01*
X169375500Y-80500500D01*
X169442539Y-80520185D01*
G37*
%TD.AperFunction*%
%TD*%
M02*
