%TF.GenerationSoftware,KiCad,Pcbnew,9.0.0*%
%TF.CreationDate,2025-03-12T20:24:48+03:00*%
%TF.ProjectId,getting-started,67657474-696e-4672-9d73-746172746564,0*%
%TF.SameCoordinates,Original*%
%TF.FileFunction,Legend,Bot*%
%TF.FilePolarity,Positive*%
%FSLAX46Y46*%
G04 Gerber Fmt 4.6, Leading zero omitted, Abs format (unit mm)*
G04 Created by KiCad (PCBNEW 9.0.0) date 2025-03-12 20:24:48*
%MOMM*%
%LPD*%
G01*
G04 APERTURE LIST*
%ADD10C,0.150000*%
%ADD11C,0.120000*%
G04 APERTURE END LIST*
D10*
X147465714Y-102551009D02*
X147322857Y-102598628D01*
X147322857Y-102598628D02*
X147275238Y-102646247D01*
X147275238Y-102646247D02*
X147227619Y-102741485D01*
X147227619Y-102741485D02*
X147227619Y-102884342D01*
X147227619Y-102884342D02*
X147275238Y-102979580D01*
X147275238Y-102979580D02*
X147322857Y-103027200D01*
X147322857Y-103027200D02*
X147418095Y-103074819D01*
X147418095Y-103074819D02*
X147799047Y-103074819D01*
X147799047Y-103074819D02*
X147799047Y-102074819D01*
X147799047Y-102074819D02*
X147465714Y-102074819D01*
X147465714Y-102074819D02*
X147370476Y-102122438D01*
X147370476Y-102122438D02*
X147322857Y-102170057D01*
X147322857Y-102170057D02*
X147275238Y-102265295D01*
X147275238Y-102265295D02*
X147275238Y-102360533D01*
X147275238Y-102360533D02*
X147322857Y-102455771D01*
X147322857Y-102455771D02*
X147370476Y-102503390D01*
X147370476Y-102503390D02*
X147465714Y-102551009D01*
X147465714Y-102551009D02*
X147799047Y-102551009D01*
X146941904Y-102074819D02*
X146370476Y-102074819D01*
X146656190Y-103074819D02*
X146656190Y-102074819D01*
X145513333Y-103074819D02*
X146084761Y-103074819D01*
X145799047Y-103074819D02*
X145799047Y-102074819D01*
X145799047Y-102074819D02*
X145894285Y-102217676D01*
X145894285Y-102217676D02*
X145989523Y-102312914D01*
X145989523Y-102312914D02*
X146084761Y-102360533D01*
D11*
%TO.C,BT1*%
X160990000Y-91390000D02*
X157372000Y-91390000D01*
X160990000Y-93100000D02*
X160990000Y-91390000D01*
X160990000Y-96900000D02*
X160990000Y-98610000D01*
X157372000Y-98610000D02*
X160990000Y-98610000D01*
X154527300Y-86890000D02*
X138832700Y-86890000D01*
X150540000Y-103110000D02*
X154527300Y-103110000D01*
X148340000Y-100910000D02*
X150540000Y-103110000D01*
X145020000Y-100910000D02*
X148340000Y-100910000D01*
X145020000Y-100910000D02*
X142820000Y-103110000D01*
X138832700Y-103110000D02*
X142820000Y-103110000D01*
X135988000Y-91390000D02*
X132370000Y-91390000D01*
X132370000Y-93100000D02*
X132370000Y-91390000D01*
X132370000Y-96900000D02*
X132370000Y-98610000D01*
X132370000Y-98610000D02*
X135988000Y-98610000D01*
X154525371Y-86888211D02*
G75*
G02*
X157371999Y-91390000I-7845391J-8111799D01*
G01*
X157372000Y-98610000D02*
G75*
G02*
X154525371Y-103111789I-10691995J3609996D01*
G01*
X135988000Y-91390000D02*
G75*
G02*
X138834629Y-86888211I10692000J-3610000D01*
G01*
X138834629Y-103111789D02*
G75*
G02*
X135988000Y-98610000I7845391J8111801D01*
G01*
%TD*%
M02*
